<?xml version="1.0" encoding="UTF-8"?>
<svg width="30px" height="30px" viewBox="0 0 30 30" version="1.1" xmlns="http://www.w3.org/2000/svg" xmlns:xlink="http://www.w3.org/1999/xlink">
    <title>18f-link-icon</title>
    <g id="18f-link-icon" stroke="none" stroke-width="1" fill="none" fill-rule="evenodd" stroke-linecap="round" stroke-linejoin="round">
        <g id="link" transform="translate(1.000000, 1.000000)" stroke="#000000" stroke-width="2">
            <path d="M11,15.2105193 C12.2368375,16.82664 14.1308642,17.8380362 16.1904999,17.982208 C18.2501357,18.1263797 20.2722955,17.3891113 21.7321434,15.961755 L26.002227,11.7882234 C28.6992987,9.05888066 28.6607268,4.72045367 25.9155342,2.03733338 C23.1703416,-0.645786902 18.7315478,-0.68348666 15.9390634,1.95260078 L13.4908821,4.33151375 M17,12.7894807 C15.7631625,11.17336 13.8691358,10.1619638 11.8095001,10.017792 C9.74986431,9.8736203 7.7277045,10.6108887 6.26785658,12.038245 L1.99777299,16.2117766 C-0.699298699,18.9411193 -0.660726781,23.2795463 2.08446582,25.9626666 C4.82965843,28.6457869 9.26845224,28.6834867 12.0609366,26.0473992 L14.4948843,23.6684862"></path>
        </g>
    </g>
</svg>