<?xml version="1.0" encoding="UTF-8"?>
<svg width="21px" height="14px" viewBox="0 0 21 14" version="1.1" xmlns="http://www.w3.org/2000/svg" xmlns:xlink="http://www.w3.org/1999/xlink">
    <title>18f-video-icon</title>
    <g id="18f-video-icon" stroke="none" stroke-width="1" fill="none" fill-rule="evenodd">
        <g id="Group" fill="#000000" fill-rule="nonzero">
            <path d="M12.7010309,0 C13.6575653,0 14.4329897,0.783501688 14.4329897,1.75 L14.432,5.919 L20.0871202,1.83819707 C20.3465749,1.65094183 20.7071399,1.71166198 20.8924647,1.97381932 C20.9624031,2.07275309 21,2.19129486 21,2.31287493 L21,11.7124874 C21,12.0346535 20.7415252,12.2958207 20.4226804,12.2958207 C20.3023537,12.2958207 20.1850341,12.2578322 20.0871202,12.1871652 L14.432,8.106 L14.4329897,12.25 C14.4329897,13.2164983 13.6575653,14 12.7010309,14 L1.73195876,14 C0.775424351,14 0,13.2164983 0,12.25 L0,1.75 C0,0.783501688 0.775424351,0 1.73195876,0 L12.7010309,0 Z M12.7010309,1.16666667 L1.73195876,1.16666667 C1.41311396,1.16666667 1.15463918,1.4278339 1.15463918,1.75 L1.15463918,12.25 C1.15463918,12.5721661 1.41311396,12.8333333 1.73195876,12.8333333 L12.7010309,12.8333333 C13.0198757,12.8333333 13.2783505,12.5721661 13.2783505,12.25 L13.2783505,1.75 C13.2783505,1.4278339 13.0198757,1.16666667 12.7010309,1.16666667 Z M19.8447835,3.44633333 L14.9035052,7.01225 L19.8447835,10.5781667 L19.8447835,3.44633333 Z" id="Combined-Shape"></path>
        </g>
    </g>
</svg>