<?xml version="1.0" encoding="UTF-8"?>
<svg width="15px" height="10px" viewBox="0 0 15 10" version="1.1" xmlns="http://www.w3.org/2000/svg" xmlns:xlink="http://www.w3.org/1999/xlink">
    <title>18f-video-icon</title>
    <g id="18f-video-icon" stroke="none" stroke-width="1" fill="none" fill-rule="evenodd">
        <g id="Group" fill="#000000" fill-rule="nonzero">
            <path d="M9.07216495,0 C9.75540381,0 10.3092784,0.559644063 10.3092784,1.25 L10.309,4.227 L14.347943,1.31299791 C14.5332678,1.17924416 14.7908142,1.2226157 14.9231891,1.40987094 C14.9731451,1.48053792 15,1.56521062 15,1.65205352 L15,8.36606242 C15,8.59618107 14.8153752,8.78272909 14.5876289,8.78272909 C14.5016812,8.78272909 14.4178815,8.75559445 14.347943,8.70511803 L10.309,5.79 L10.3092784,8.75 C10.3092784,9.44035594 9.75540381,10 9.07216495,10 L1.2371134,10 C0.553874536,10 0,9.44035594 0,8.75 L0,1.25 C0,0.559644063 0.553874536,0 1.2371134,0 L9.07216495,0 Z M9.07216495,0.833333333 L1.2371134,0.833333333 C1.00936711,0.833333333 0.824742268,1.01988135 0.824742268,1.25 L0.824742268,8.75 C0.824742268,8.98011865 1.00936711,9.16666667 1.2371134,9.16666667 L9.07216495,9.16666667 C9.29991124,9.16666667 9.48453608,8.98011865 9.48453608,8.75 L9.48453608,1.25 C9.48453608,1.01988135 9.29991124,0.833333333 9.07216495,0.833333333 Z M14.1748454,2.46166667 L10.6453608,5.00875 L14.1748454,7.55583333 L14.1748454,2.46166667 Z" id="Combined-Shape"></path>
        </g>
    </g>
</svg>