<?xml version="1.0" encoding="UTF-8"?>
<svg width="21px" height="14px" viewBox="0 0 21 14" version="1.1" xmlns="http://www.w3.org/2000/svg" xmlns:xlink="http://www.w3.org/1999/xlink">
    <title>presentation-icon</title>
    <g id="presentation-icon" stroke="none" stroke-width="1" fill="none" fill-rule="evenodd">
        <path d="M19.9137931,0 C20.5136886,0 21,0.458635134 21,1.02439024 L21,1.4 L22.4,1.4 L22.4,2.1 L21,2.099 L21,12.9756098 C21,13.5413649 20.5136886,14 19.9137931,14 L1.0862069,14 C0.486311392,14 0,13.5413649 0,12.9756098 L0,1.02439024 C0,0.458635134 0.486311392,0 1.0862069,0 L19.9137931,0 Z M20.275,2.099 L0.724,2.099 L0.724137931,12.9756098 C0.724137931,13.1641948 0.886241729,13.3170732 1.0862069,13.3170732 L19.9137931,13.3170732 C20.1137583,13.3170732 20.2758621,13.1641948 20.2758621,12.9756098 L20.275,2.099 Z M19.9137931,0.682926829 L1.0862069,0.682926829 C0.886241729,0.682926829 0.724137931,0.835805207 0.724137931,1.02439024 L0.724,1.4 L20.275,1.4 L20.2758621,1.02439024 C20.2758621,0.835805207 20.1137583,0.682926829 19.9137931,0.682926829 Z" id="Combined-Shape" fill="#000000" fill-rule="nonzero"></path>
        <rect id="Rectangle" stroke="#000000" x="12.1027553" y="3.64999582" width="6.75155201" height="7.81292992" rx="0.5"></rect>
        <rect id="Rectangle" fill="#000000" x="1.48088286" y="4.84633333" width="8.26341463" height="1.18315782" rx="0.591578911"></rect>
        <rect id="Rectangle" fill="#000000" x="1.48088286" y="6.96488187" width="8.26341463" height="1.18315782" rx="0.591578911"></rect>
        <rect id="Rectangle" fill="#000000" x="1.48088286" y="9.2445135" width="8.26341463" height="1.18315782" rx="0.591578911"></rect>
    </g>
</svg>