<?xml version="1.0" encoding="UTF-8"?>
<svg width="15px" height="10px" viewBox="0 0 15 10" version="1.1" xmlns="http://www.w3.org/2000/svg" xmlns:xlink="http://www.w3.org/1999/xlink">
    <title>presentation-icon</title>
    <g id="presentation-icon" stroke="none" stroke-width="1" fill="none" fill-rule="evenodd">
        <path d="M14.2241379,0 C14.6526347,0 15,0.327596525 15,0.731707317 L15,1 L16,1 L16,1.5 L15,1.5 L15,9.26829268 C15,9.67240348 14.6526347,10 14.2241379,10 L0.775862069,10 C0.34736528,10 0,9.67240348 0,9.26829268 L0,0.731707317 C0,0.327596525 0.34736528,0 0.775862069,0 L14.2241379,0 Z M14.482,1.5 L0.517,1.5 L0.517241379,9.26829268 C0.517241379,9.40299628 0.633029806,9.51219512 0.775862069,9.51219512 L14.2241379,9.51219512 C14.3669702,9.51219512 14.4827586,9.40299628 14.4827586,9.26829268 L14.482,1.5 Z M14.2241379,0.487804878 L0.775862069,0.487804878 C0.633029806,0.487804878 0.517241379,0.59700372 0.517241379,0.731707317 L0.517,1 L14.482,1 L14.4827586,0.731707317 C14.4827586,0.59700372 14.3669702,0.487804878 14.2241379,0.487804878 Z" id="Combined-Shape" fill="#000000" fill-rule="nonzero"></path>
        <rect id="Rectangle" stroke="#000000" x="8.78768234" y="2.74999701" width="4.53682287" height="5.29494994" rx="0.5"></rect>
        <rect id="Rectangle" fill="#000000" x="1.05777347" y="3.46166667" width="5.90243902" height="1" rx="0.5"></rect>
        <rect id="Rectangle" fill="#000000" x="1.05777347" y="4.97491562" width="5.90243902" height="1" rx="0.5"></rect>
        <rect id="Rectangle" fill="#000000" x="1.05777347" y="6.60322393" width="5.90243902" height="1" rx="0.5"></rect>
    </g>
</svg>