<?xml version="1.0" encoding="UTF-8"?>
<svg width="64px" height="46px" viewBox="0 0 64 46" version="1.1" xmlns="http://www.w3.org/2000/svg" xmlns:xlink="http://www.w3.org/1999/xlink">
    <title>monitor-layout-1--c</title>
    <g id="monitor-layout-1--c" stroke="none" stroke-width="1" fill="none" fill-rule="evenodd" stroke-linecap="round" stroke-linejoin="round">
        <path d="M6,3 L58,3 C59.1045695,3 60,3.8954305 60,5 L60,40 C60,41.1045695 59.1045695,42 58,42 L6,42 C4.8954305,42 4,41.1045695 4,40 L4,5 C4,3.8954305 4.8954305,3 6,3 Z M5,9 L60,9 M28.4347826,16 L47.5652174,16 M28.4347826,30 L47.5652174,30 M28.4166667,20 L43,20 M28.4166667,34 L43,34 M13,14 L17,14 C18.1045695,14 19,14.8954305 19,16 L19,20 C19,21.1045695 18.1045695,22 17,22 L13,22 C11.8954305,22 11,21.1045695 11,20 L11,16 C11,14.8954305 11.8954305,14 13,14 Z M13,29 L17,29 C18.1045695,29 19,29.8954305 19,31 L19,35 C19,36.1045695 18.1045695,37 17,37 L13,37 C11.8954305,37 11,36.1045695 11,35 L11,31 C11,29.8954305 11.8954305,29 13,29 Z" stroke="#000000" stroke-width="2"></path>
    </g>
</svg>